<svg width="47" height="46" viewBox="0 0 47 46" fill="none" xmlns="http://www.w3.org/2000/svg">
<path d="M15.7039 37.0392C15.7039 37.2294 15.4862 37.3816 15.2117 37.3816C14.8993 37.4101 14.6816 37.2579 14.6816 37.0392C14.6816 36.8489 14.8993 36.6967 15.1738 36.6967C15.4578 36.6682 15.7039 36.8204 15.7039 37.0392ZM12.76 36.6111C12.6938 36.8014 12.8831 37.0201 13.1671 37.0772C13.4132 37.1723 13.6972 37.0772 13.754 36.887C13.8108 36.6967 13.6309 36.478 13.3469 36.3924C13.1008 36.3258 12.8263 36.4209 12.76 36.6111ZM16.944 36.4494C16.6695 36.516 16.4801 36.6967 16.5085 36.9155C16.5369 37.1057 16.783 37.2294 17.067 37.1628C17.3415 37.0962 17.5309 36.9155 17.5025 36.7253C17.4741 36.5445 17.2185 36.4209 16.944 36.4494ZM23.1725 0C10.0433 0 0 10.016 0 23.2089C0 33.7576 6.6072 42.7843 16.0447 45.9613C17.2563 46.1801 17.6823 45.4286 17.6823 44.8104C17.6823 44.2206 17.6539 40.9676 17.6539 38.9701C17.6539 38.9701 11.0278 40.3968 9.63629 36.1355C9.63629 36.1355 8.55718 33.3676 7.00477 32.6542C7.00477 32.6542 4.83708 31.1608 7.15622 31.1894C7.15622 31.1894 9.51323 31.3796 10.8101 33.6434C12.8831 37.315 16.3571 36.2592 17.7107 35.6314C17.9284 34.1095 18.5437 33.0537 19.2253 32.4259C13.9338 31.8362 8.59504 31.0657 8.59504 21.9153C8.59504 19.2996 9.31445 17.9869 10.829 16.3128C10.5829 15.6946 9.77828 13.1454 11.0751 9.85428C13.0535 9.23601 17.6066 12.4225 17.6066 12.4225C19.4998 11.8898 21.5349 11.614 23.5512 11.614C25.5674 11.614 27.6026 11.8898 29.4958 12.4225C29.4958 12.4225 34.0489 9.2265 36.0272 9.85428C37.3241 13.1549 36.5195 15.6946 36.2733 16.3128C37.7879 17.9964 38.7155 19.3091 38.7155 21.9153C38.7155 31.0943 33.1401 31.8267 27.8487 32.4259C28.7196 33.1774 29.4579 34.6041 29.4579 36.8394C29.4579 40.0449 29.4295 44.0114 29.4295 44.7913C29.4295 45.4096 29.8649 46.161 31.0671 45.9423C40.533 42.7843 46.9509 33.7576 46.9509 23.2089C46.9509 10.016 36.3017 0 23.1725 0ZM9.20086 32.8064C9.0778 32.9015 9.1062 33.1203 9.26712 33.301C9.41857 33.4532 9.63629 33.5198 9.75935 33.3961C9.8824 33.301 9.85401 33.0822 9.69309 32.9015C9.54163 32.7493 9.32391 32.6827 9.20086 32.8064ZM8.17854 32.0359C8.11228 32.1596 8.20694 32.3118 8.39626 32.4069C8.54771 32.502 8.73703 32.4735 8.80329 32.3403C8.86955 32.2167 8.77489 32.0645 8.58557 31.9693C8.39626 31.9123 8.2448 31.9408 8.17854 32.0359ZM11.2455 35.4221C11.094 35.5458 11.1508 35.8312 11.3686 36.0119C11.5863 36.2307 11.8608 36.2592 11.9838 36.107C12.1069 35.9833 12.0501 35.698 11.8608 35.5173C11.6525 35.2985 11.3686 35.27 11.2455 35.4221ZM10.1664 34.0239C10.0149 34.119 10.0149 34.3663 10.1664 34.5851C10.3178 34.8039 10.5734 34.899 10.6965 34.8039C10.8479 34.6802 10.8479 34.4329 10.6965 34.2141C10.5639 33.9954 10.3178 33.9003 10.1664 34.0239Z" fill="black"/>
</svg>
