<svg width="51" height="50" viewBox="0 0 51 50" fill="none" xmlns="http://www.w3.org/2000/svg">
<path d="M25.9572 0H25.9447C12.1603 0 0.950928 11.2125 0.950928 25C0.950928 30.4687 2.71343 35.5375 5.7103 39.6531L2.59468 48.9406L12.2041 45.8687C16.1572 48.4875 20.8728 50 25.9572 50C39.7416 50 50.9509 38.7844 50.9509 25C50.9509 11.2156 39.7416 0 25.9572 0Z" fill="#4CAF50"/>
<path d="M40.5044 35.3031C39.9013 37.0062 37.5075 38.4187 35.5981 38.8312C34.2919 39.1093 32.5856 39.3312 26.8419 36.95C19.495 33.9062 14.7638 26.4406 14.395 25.9562C14.0419 25.4718 11.4263 22.0031 11.4263 18.4156C11.4263 14.8281 13.2481 13.0812 13.9825 12.3312C14.5856 11.7156 15.5825 11.4343 16.5388 11.4343C16.8481 11.4343 17.1263 11.45 17.3763 11.4625C18.1106 11.4937 18.4794 11.5375 18.9638 12.6968C19.5669 14.15 21.0356 17.7375 21.2106 18.1062C21.3888 18.475 21.5669 18.975 21.3169 19.4593C21.0825 19.9593 20.8763 20.1812 20.5075 20.6062C20.1388 21.0312 19.7888 21.3562 19.42 21.8125C19.0825 22.2093 18.7013 22.6343 19.1263 23.3687C19.5513 24.0875 21.02 26.4843 23.1825 28.4093C25.9731 30.8937 28.2356 31.6875 29.045 32.025C29.6481 32.275 30.3669 32.2156 30.8075 31.7468C31.3669 31.1437 32.0575 30.1437 32.7606 29.1593C33.2606 28.4531 33.8919 28.3656 34.5544 28.6156C35.2294 28.85 38.8013 30.6156 39.5356 30.9812C40.27 31.35 40.7544 31.525 40.9325 31.8343C41.1075 32.1437 41.1075 33.5968 40.5044 35.3031Z" fill="#FAFAFA"/>
</svg>
