<svg xmlns="http://www.w3.org/2000/svg" xmlns:xlink="http://www.w3.org/1999/xlink" viewBox="0 0 1134.84 1205.29"><defs><style>.cls-1{isolation:isolate;}.cls-2,.cls-8{fill:#008e6e;}.cls-11,.cls-2,.cls-9{stroke:#264763;stroke-miterlimit:10;}.cls-2{stroke-width:15px;}.cls-3,.cls-4,.cls-5,.cls-6{opacity:0.3;mix-blend-mode:multiply;}.cls-3{fill:url(#radial-gradient);}.cls-4{fill:url(#radial-gradient-2);}.cls-5{fill:url(#radial-gradient-3);}.cls-6{fill:url(#radial-gradient-4);}.cls-7{fill:#264763;}.cls-15,.cls-9{fill:#edb652;}.cls-11,.cls-9{stroke-width:20px;}.cls-10{fill:#127f60;}.cls-11{fill:none;}.cls-12{fill:#fff;}.cls-13{fill:url(#linear-gradient);}.cls-14{fill:url(#linear-gradient-2);}.cls-16{fill:#ce953a;}.cls-17{fill:#333;}.cls-18{fill:#f3e7d7;}.cls-19{fill:#1b3752;}.cls-20{fill:#dcffff;opacity:0.5;mix-blend-mode:screen;}</style><radialGradient id="radial-gradient" cx="-12962.55" cy="-20437.28" r="65.1" gradientTransform="matrix(0.28, 1, -0.51, 0.01, -6722.19, 14070.56)" gradientUnits="userSpaceOnUse"><stop offset="0.07" stop-color="#127f60"/><stop offset="0.24" stop-color="#459b82"/><stop offset="0.51" stop-color="#94c5b7"/><stop offset="0.73" stop-color="#cee4de"/><stop offset="0.9" stop-color="#f1f8f6"/><stop offset="0.98" stop-color="#fff"/></radialGradient><radialGradient id="radial-gradient-2" cx="-17384.17" cy="-23271.1" r="65.09" gradientTransform="matrix(0.05, 1.02, -0.41, -0.16, -8484.27, 14826.77)" xlink:href="#radial-gradient"/><radialGradient id="radial-gradient-3" cx="-16761.84" cy="6357.82" r="60.67" gradientTransform="matrix(-1.04, 0.1, 0.17, 0.48, -17603.92, -484.19)" xlink:href="#radial-gradient"/><radialGradient id="radial-gradient-4" cx="-15005.54" cy="13499.41" r="60.67" gradientTransform="matrix(-0.97, 0.33, 0.3, 0.32, -17667.89, 1432.33)" xlink:href="#radial-gradient"/><linearGradient id="linear-gradient" x1="-4374.95" y1="1466.7" x2="-4374.95" y2="1199.35" gradientTransform="matrix(-0.95, 0.3, 0.3, 0.95, -3871.66, 686.52)" gradientUnits="userSpaceOnUse"><stop offset="0" stop-color="#c6c6c6"/><stop offset="0.14" stop-color="#ccc" stop-opacity="0.89"/><stop offset="0.43" stop-color="#dcdcdc" stop-opacity="0.62"/><stop offset="0.84" stop-color="#f5f5f5" stop-opacity="0.18"/><stop offset="1" stop-color="#fff" stop-opacity="0"/></linearGradient><linearGradient id="linear-gradient-2" x1="392.19" y1="490.51" x2="392.19" y2="223.14" gradientTransform="translate(31.98 228.02) rotate(6.71)" xlink:href="#linear-gradient"/></defs><g class="cls-1"><g id="Layer_2" data-name="Layer 2"><g id="Layer_1-2" data-name="Layer 1"><g id="tangan_Kanan" data-name="tangan Kanan"><path class="cls-2" d="M228.93,824.25c-38.78-37.27-67.63-41.5-31.42-141.19,35.59-98-55.2-67.43-52.22-.39-4.21-46.12-63.24-20.76-44.78,44-15.7-31.39-51.86,16.4-11.43,78.06,40.06,61.1,100.24,70.16,130.77,64a28.36,28.36,0,0,1,13-13.15C240.42,851.75,235.93,831,228.93,824.25Z"/><path class="cls-3" d="M152,855.72c-19.15.46-43.16-29.53-53.62-67S95,720.51,114.13,720s43.14,29.52,53.62,67S171.18,855.25,152,855.72Z"/><path class="cls-4" d="M165.83,830.82c-15.15-6-28.83-41.83-30.56-80s9.16-64.28,24.3-58.29,28.81,41.81,30.56,80S181,836.82,165.83,830.82Z"/></g><g id="tangan_kiri" data-name="tangan kiri"><path class="cls-2" d="M816.72,793c.75-7.92,20.29-11,28.52-7.22,45.48,21.05,58.93,44.66,133.24-20.52,1.67-1.48,3.29-2.82,4.88-4.13-13.12,45.52-21.39,92.21-26.8,139.21-12.35,3.38-28.21,4.26-47.08.27-66.62-14.11-94.85-63.3-99.79-91.91A26.42,26.42,0,0,0,816.72,793Z"/><path class="cls-5" d="M898.27,826.29c27.24-2.71,53.38,2.74,67.17,12.78q-3.26,18.3-5.78,36.71c-9.74,5.57-23.42,9.71-39.4,11.3-36.07,3.59-70.24-7.1-76.32-23.89S862.2,829.89,898.27,826.29Z"/><path class="cls-6" d="M903.29,801.94c27.1-9.17,55.47-11.12,70.94-5.79q-4,17-7.17,34.1a132.52,132.52,0,0,1-26.35,12c-33.75,11.42-69.49,11.67-79.82.54S869.53,813.38,903.29,801.94Z"/><path class="cls-7" d="M1027.75,518.66,944.64,979.4c-7.35,40.79-58.81,28.73-48.25-11l120.1-452.28C1018.74,507.62,1029.3,510,1027.75,518.66Z"/><path class="cls-8" d="M957.35,908.57c-12.05-15.57-15.89-33.68-9.78-46.15a19.84,19.84,0,0,1,8.16-8.83c-15.48-19.54-16.79-39.2-12.23-51.7,4.09-11.2,13.08-18.16,23.46-18.16.46,0,.92,0,1.41,0-5.19-17.51-3-34.68,3-46.58,5.63-11.18,14.43-17.59,24.13-17.59,5.25,0,13.16,2,21.09,11.34,11.57,13.72,14.75,33.09,8.31,50.57-1.64,4.45-3.6,9.68-5.77,15.5-10.46,28-26.27,70.24-35.13,101.69l-.4,1.43-.92,1.17c-6.58,8.37-14.15,10.15-19.35,10.17h-3.7Z"/><path class="cls-7" d="M995.48,727.11c4.95,0,10.24,2.63,15.36,8.68,10,11.91,12.38,28.53,7,43.14-9.62,26.13-30.3,79.49-41.08,117.75-4.29,5.45-9,7.28-13.48,7.3-17-22-12.63-45.17,1.53-45.17a18.9,18.9,0,0,1,9.2,2.77c-38.15-32.14-27-70.34-7-70.34,5.93,0,12.65,3.36,19.08,11.25-24.67-33.31-10.36-75.38,9.44-75.38m0-15h0c-12.45,0-24,8.12-30.83,21.71-5.73,11.37-8.38,27-5.49,43.42-10.18,2.7-18.53,10.65-22.7,22.08-3.94,10.8-3.7,23.67.68,36.24a74.45,74.45,0,0,0,8.38,16.67,29.18,29.18,0,0,0-4.68,6.88c-7.37,15-3.21,36.24,10.58,54L956,919l7.39,0c6.85,0,16.79-2.31,25.22-13l1.83-2.34.81-2.87c8.78-31.16,24.52-73.26,34.94-101.11,2.21-5.93,4.13-11,5.77-15.52,7.38-20,3.69-42.22-9.61-58-9.78-11.58-20-14-26.82-14Z"/></g><g id="kepala"><path class="cls-9" d="M530.78,1011.92c29.41-48.67,112.71-147.18,304.59-145.79V595c0-149.2-137.06-271.28-304.59-271.28h0c-167.52,0-304.59,122.08-304.59,271.28V866.13C418.08,864.74,501.38,963.25,530.78,1011.92Z"/><path class="cls-8" d="M530.61,967C560,918.3,643.32,819.79,835.2,821.19V550c0-149.21-137.06-271.28-304.59-271.28h0C363.09,278.74,226,400.81,226,550V821.19C417.91,819.79,501.21,918.3,530.61,967Z"/><path class="cls-10" d="M531.88,425.81s206.88,122.26,0,523.8c0,0,62.93-105.26,188.25-120.85S839.75,818,837.48,785.87s12.83-392.33-102.17-433-196.18,54.84-196.18,54.84l-8.52,14.95"/><path class="cls-11" d="M530.61,967C560,918.3,643.32,819.79,835.2,821.19V550c0-149.21-137.06-271.28-304.59-271.28h0C363.09,278.74,226,400.81,226,550V821.19C417.91,819.79,501.21,918.3,530.61,967Z"/></g><g id="alis_mata" data-name="alis mata"><path class="cls-7" d="M370.85,672.17H539.11V536.42S504.48,429.57,363.3,436.93,204.05,325.69,204.05,325.69s-2.26,46.31,29.36,90.36c0,0-9.1,5.65-29.4-35,0,0-.93,39.39,20.19,66.77a68.57,68.57,0,0,0,5.83,6.64c27.1,27.11-14.69,0-24.85-27.11,0,0,4.42,167.24,165.67,285.82Z"/><path class="cls-7" d="M834.28,454.45a68.46,68.46,0,0,0,5.82-6.64C861.22,420.43,860.29,381,860.29,381c-20.29,40.66-29.4,35-29.4,35,31.63-44.05,29.37-90.36,29.37-90.36S842.19,444.29,701,436.93s-175.8,99.49-175.8,99.49V672.17H660.31V735.4C854.12,616.82,859.13,427.34,859.13,427.34,849,454.45,807.17,481.56,834.28,454.45Z"/><ellipse class="cls-12" cx="691.79" cy="620.87" rx="135.15" ry="134.36"/><ellipse class="cls-12" cx="374.03" cy="620.87" rx="135.15" ry="134.36"/><path class="cls-13" d="M778.37,499.71s75.37,233.6-194.71,204.1c0,0,55.37,77.57,170.25,29.25S830,527.39,778.37,499.71Z"/><path class="cls-14" d="M279.29,513.86S249.86,757.42,509.41,677.53c0,0-39.57,86.61-161.58,60.82S233.85,550.77,279.29,513.86Z"/></g><g id="mata_kiri" data-name="mata kiri"><path class="cls-7" d="M688.78,769.6c-87.12,0-158-70.46-158-157.07s70.88-157.07,158-157.07,158,70.46,158,157.07S775.9,769.6,688.78,769.6Zm0-281.52c-69,0-125.18,55.83-125.18,124.45S619.75,737,688.78,737,814,681.15,814,612.53,757.8,488.08,688.78,488.08Z"/><path class="cls-7" d="M738.53,574.76a70.11,70.11,0,0,1-28.87,112.41c-36.37,13-76.43-6-89.54-42.65s5.72-76.88,42.09-89.9A68.65,68.65,0,0,1,688,550.7a28.47,28.47,0,1,0,50.49,24.06Z"/></g><g id="mata_kanan" data-name="mata kanan"><path class="cls-7" d="M375.53,769.6c-87.12,0-158-70.46-158-157.07s70.88-157.07,158-157.07,158,70.46,158,157.07S462.64,769.6,375.53,769.6Zm0-281.52c-69,0-125.18,55.83-125.18,124.45S306.5,737,375.53,737,500.7,681.15,500.7,612.53,444.55,488.08,375.53,488.08Z"/><path class="cls-7" d="M440.21,613.55A70,70,0,1,1,301,628.32c-4.1-38.65,23.68-73.37,62.1-77.44a68.68,68.68,0,0,1,26,2.28,28.47,28.47,0,1,0,43.39,35.29A69.53,69.53,0,0,1,440.21,613.55Z"/></g><g id="mulut"><path class="cls-15" d="M577,665.41l-45.15-26.74-40.35,24-4.64,2.7a16.72,16.72,0,0,0-6.41,22.3l42.75,81a9.88,9.88,0,0,0,17.45,0l42.76-81A16.88,16.88,0,0,0,577,665.41Z"/><path class="cls-16" d="M531.88,638.67l-3,93.25,3,42.05s8.89-.4,30.42-46.2,35.45-54.3,6.83-67S535.37,640,535.37,640Z"/><path class="cls-17" d="M532,776.22h0a12.06,12.06,0,0,1-10.72-6.45l-42.75-81a19,19,0,0,1,7.26-25.27l4.64-2.71,41.49-24.71,46.32,27.43a19.17,19.17,0,0,1,7.26,25.25l-42.77,81A12.08,12.08,0,0,1,532,776.22Zm-.07-134.93-39.19,23.34L488,667.35a14.57,14.57,0,0,0-5.55,19.32l42.75,81a7.46,7.46,0,0,0,6.72,4h0a7.48,7.48,0,0,0,6.73-4l42.76-81a14.68,14.68,0,0,0-5.57-19.32Z"/><path class="cls-7" d="M532,779h0a14.87,14.87,0,0,1-13.22-8l-42.75-81a21.84,21.84,0,0,1,8.32-29l4.65-2.72,42.92-25.56,47.77,28.29A22,22,0,0,1,588,690l-42.77,81.05A14.9,14.9,0,0,1,532,779Zm0-4.49v0Zm-.07-130L494.14,667l-4.68,2.73a11.75,11.75,0,0,0-4.47,15.6l42.74,81a4.78,4.78,0,0,0,8.45,0l42.76-81a11.87,11.87,0,0,0-4.53-15.62Z"/></g><g id="tassel"><path id="widuda" class="cls-18" d="M721.8,177.86c.3-.15.6-.15.9-.3A4.84,4.84,0,0,1,721.8,177.86Z"/><path class="cls-19" d="M967.82,183.45,746.09,282.71l.33,64.38s-101.66-19.93-213,78.72L531.17,0Z"/><path class="cls-7" d="M96.49,188.21,319.25,285l.34,64.38s101.45-21,213.83,76.39L531.17,0Z"/><rect class="cls-7" x="111.17" y="188.4" width="12.34" height="123.16" transform="translate(-1.36 0.64) rotate(-0.31)"/><ellipse class="cls-7" cx="117.57" cy="317.29" rx="17.78" ry="17.68" transform="translate(-6.82 2.61) rotate(-1.24)"/><polyline class="cls-7" points="111.48 333.1 100.05 366.69 138.77 366.48 123.83 333.03"/><rect class="cls-7" x="109.63" y="297.4" width="12.34" height="123.16" transform="translate(-1.96 0.64) rotate(-0.31)"/><ellipse class="cls-7" cx="116.03" cy="426.29" rx="17.78" ry="17.68" transform="translate(-9.18 2.6) rotate(-1.24)"/><polyline class="cls-7" points="109.95 442.1 98.51 475.69 137.23 475.48 122.29 442.03"/><path class="cls-18" d="M531.7,133.8c.3-.15.6-.15.9-.3A4.84,4.84,0,0,1,531.7,133.8Z"/></g><g id="kacamata"><path class="cls-20" d="M544.33,651.38a35.6,35.6,0,1,0,35.59-35.6A35.59,35.59,0,0,0,544.33,651.38Z"/><path class="cls-20" d="M446,651.64a35.6,35.6,0,1,0,35.6-35.6A35.59,35.59,0,0,0,446,651.64Z"/><path class="cls-19" d="M481.42,614.5a37.14,37.14,0,0,1,36.79,30.7,48.53,48.53,0,0,1,25.1,0,37.14,37.14,0,1,1-.38,9.38,4.25,4.25,0,0,0-3.27-3.79,40.37,40.37,0,0,0-17.57,0,4.41,4.41,0,0,0-3.44,4,37.14,37.14,0,1,1-37.23-40.29Zm98.5,69.31a32.43,32.43,0,1,0-32.43-32.43A32.43,32.43,0,0,0,579.92,683.81Zm-98.28.26a32.43,32.43,0,1,0-32.43-32.43A32.43,32.43,0,0,0,481.64,684.07Z"/></g><g id="text"><path class="cls-7" d="M1115.67,980.82q-17.37-2.45-34.73-4.41a17.31,17.31,0,0,0-12.47,3.24,77.76,77.76,0,0,0-32.6-9.83c-15.16-1.23-29.15,1.68-41.58,8.52a72.2,72.2,0,0,0-26.69,25.79v-17a19.83,19.83,0,0,0-4.28-12.2,37,37,0,0,0,8.22-23.88,39.71,39.71,0,0,0-11.71-28.5,40.3,40.3,0,0,0-28.39-11.93c-11.15-.2-21,3.54-28.62,10.74a39.28,39.28,0,0,0-3.73,52.33,19.75,19.75,0,0,0-2,3,19,19,0,0,0-16.88-10q-17.37.12-34.73.5a19.53,19.53,0,0,0-12.47,4.9c-9.66-4.26-20.61-6.2-32.6-5.73a80.37,80.37,0,0,0-41.58,13.21,82.57,82.57,0,0,0-17.57,15.61v-4.63a17.89,17.89,0,0,0-19.17-18l-11.37.7V958.82a17.75,17.75,0,0,0-19.17-17.93q-17.37,1.17-34.73,2.42a21,21,0,0,0-19.17,20.58v14.59a20.77,20.77,0,0,0-8.54,4.25,17.91,17.91,0,0,0-11.45-3q-17.35,1.32-34.72,2.68A20.66,20.66,0,0,0,570.47,988c-9.67-3.77-20.62-5.2-32.61-4.27a85,85,0,0,0-53.78,24.6,17.54,17.54,0,0,0-19.12-17q-18.34,1.29-36.7,2.47a20.76,20.76,0,0,0-18.2,14.27q-8.13,25.06-16.28,50.09-8.14-24.12-16.28-48.27a18.07,18.07,0,0,0-18.2-12.24q-18.44.85-36.88,1.5A39.79,39.79,0,0,0,326.26,982a36.82,36.82,0,0,0-12-27.8c-7.58-7-17.39-10.53-28.37-10.31a41.37,41.37,0,0,0-28.37,11.46,38.28,38.28,0,0,0-12,28.27A39,39,0,0,0,248.62,999a18.55,18.55,0,0,0-3.35-.3,70.83,70.83,0,0,0-29.65,6.23,19.58,19.58,0,0,0-12.22-4.59q-17.25-.32-34.48-1a18.56,18.56,0,0,0-12.4,4.06c-.76-1.6-1.57-3.18-2.46-4.74-6.6-11.58-16.42-21-29.19-28-12-6.61-26.23-10.62-42.4-12.12q-31.65-2.94-63.3-7.36C8.6,949.75,0,957,0,967.57v170.91c0,10.57,8.6,20.53,19.17,22q17.24,2.41,34.48,4.37a16.88,16.88,0,0,0,19.17-17.12v-46.45c3.22.32,6.43.63,9.65.93,17.2,1.59,32-.55,44.05-6.14a62.71,62.71,0,0,0,23.22-18v75.28a20.18,20.18,0,0,0,19.18,20q17.24.64,34.48,1a18.86,18.86,0,0,0,19.17-18.92v-67.58c0-8.19,1.52-11.7,2.05-12.32.83-.75,3.61-2.49,11.53-2.47h9.12a18.74,18.74,0,0,0,4-.43v82.86a19,19,0,0,0,19.17,19q17.24-.23,34.48-.7A19.9,19.9,0,0,0,322.07,1154V1072.8q16.28,43.38,32.55,86.59a18.13,18.13,0,0,0,18,11.66q20.94-1.07,41.87-2.34a20.83,20.83,0,0,0,18-13.62l24.37-67.1a90.12,90.12,0,0,0,9.94,35.39c7.08,13.27,16.95,23.45,29.33,30.23s26.46,9.72,41.54,8.56a81,81,0,0,0,32.75-9.43,17.91,17.91,0,0,0,12.57,3.7q17.35-1.35,34.72-2.68a21,21,0,0,0,19.17-20.62v-88.7c.28,0,.55.08.82.1V1091c0,39,22.88,59.51,62.77,56.88q10.83-.7,21.67-1.37a20.62,20.62,0,0,0,19.17-20.29v-5.08a73,73,0,0,0,17.37,13.81,76.45,76.45,0,0,0,41.53,9.84,80.45,80.45,0,0,0,32.75-8,18.8,18.8,0,0,0,12.57,4.37q17.17-.37,34.35-.5a19.36,19.36,0,0,0-9.19,16.42v29.14a19.07,19.07,0,0,0,19.17,19q7.63,0,15.27,0c18.71.09,33.8-4.54,44.85-14,11.73-10,17.67-25.53,17.67-46.21v-39.86a86.72,86.72,0,0,0,26.49,28.46,85.52,85.52,0,0,0,41.53,14.52c12,1,23-.3,32.75-3.85a21.66,21.66,0,0,0,12.57,6.05q17.36,2,34.73,4.41c10.57,1.48,19.17-5.76,19.17-16.33V1002.83C1134.84,992.26,1126.24,982.3,1115.67,980.82Zm-1034.31,73C68.45,1052.6,58,1041,58,1028s10.47-22.21,23.38-21,23.38,12.46,23.38,25.38A21.08,21.08,0,0,1,81.36,1053.81Zm465.49,41.46a21.34,21.34,0,0,1-23.38-21.58,25.72,25.72,0,0,1,23.38-25.19,21.33,21.33,0,0,1,23.39,21.56A25.72,25.72,0,0,1,546.85,1095.27ZM710.72,1080v-40.26l10-.62a110.14,110.14,0,0,0-1.83,20.12,109,109,0,0,0,1.84,20.14Zm99.73-1.76a22.34,22.34,0,0,1-23.38-22.47,24.48,24.48,0,0,1,23.38-24.29,22.49,22.49,0,0,1,23.38,22.66A24.3,24.3,0,0,1,810.45,1078.19Zm84.33,59.59h-4.59a19.39,19.39,0,0,0,4.59-3.92Zm150.51-55c-12.91-1.13-23.38-12.33-23.38-25.25a21.21,21.21,0,0,1,23.38-21.51c12.92,1.13,23.38,12.72,23.38,25.63S1058.21,1084,1045.29,1082.83Z"/><path class="cls-8" d="M124.26,1059c-4.35,7.72-11.16,13.71-20.44,17.89s-21,5.62-35.1,4.17q-14.4-1.47-28.81-3.26v65.62q-17.25-2.15-34.48-4.75V967.77q31.65,4.8,63.29,8c13.31,1.37,24.63,4.63,34,9.94s16.38,12.07,21.06,20.37a55.24,55.24,0,0,1,7,27.62A50.66,50.66,0,0,1,124.26,1059ZM88.43,1048.8q6.88-5.88,6.89-17.65c0-16.67-9.35-25.69-28.07-27.6q-13.68-1.42-27.34-3.12v49.71q13.67,1.69,27.34,3.11C76.77,1054.24,83.83,1052.72,88.43,1048.8Z"/><path class="cls-8" d="M207,1023.12a49.21,49.21,0,0,1,24.5-5.87v36l-9.11,0c-10.84-.1-19,2.28-24.51,7.22s-8.25,13.69-8.25,26.26v67.58q-17.24-.45-34.48-1.23V1017.37q17.25.78,34.48,1.22v21.06A47.36,47.36,0,0,1,207,1023.12Z"/><path class="cls-8" d="M257,997.24A18.85,18.85,0,0,1,251,983a19.13,19.13,0,0,1,6-14.37,21.44,21.44,0,0,1,15.15-5.92,20.89,20.89,0,0,1,15.15,5.48,18.58,18.58,0,0,1,6,14.19,19.41,19.41,0,0,1-6,14.46,21.34,21.34,0,0,1-15.15,6A20.72,20.72,0,0,1,257,997.24Zm32.14,21.43v135.66q-17.23.38-34.48.49V1019.17Q271.92,1019.05,289.15,1018.67Z"/><path class="cls-8" d="M380,1119.28q17.23-52.93,34.48-106,18.35-1.11,36.7-2.37-25.25,69.54-50.49,138.84-20.94,1.21-41.87,2.19-25.12-66.66-50.25-133.73,18.48-.54,36.95-1.33Q362.8,1068.15,380,1119.28Z"/><path class="cls-8" d="M470.06,1040.41a67.24,67.24,0,0,1,22.41-26.11,64,64,0,0,1,31.65-10.95q15.27-1.17,26.72,4a48.48,48.48,0,0,1,18.35,14v-19.34q17.37-1.37,34.73-2.7V1135q-17.37,1.34-34.73,2.7v-19.84a57.28,57.28,0,0,1-18.35,17.23,59.75,59.75,0,0,1-27,8.33,55.13,55.13,0,0,1-31.4-6.45q-14.16-7.77-22.41-23.23t-8.25-36.27Q461.81,1056.92,470.06,1040.41Zm94.21,8.43a30.9,30.9,0,0,0-13.3-12.67,34.09,34.09,0,0,0-18-3.39,37.5,37.5,0,0,0-17.74,6,39.26,39.26,0,0,0-13.17,14.59,44.46,44.46,0,0,0-5.05,21.55q0,12.25,5.05,21A32.12,32.12,0,0,0,533,1112.61a38.08,38.08,0,0,0,18-6.17,38.84,38.84,0,0,0,13.3-14.75q4.92-9.32,4.92-21.81T564.27,1048.84Z"/><path class="cls-8" d="M677.81,1022.07v65.62c0,4.58,1.11,7.8,3.32,9.69s6,2.65,11.21,2.3l16-1v28.9q-10.85.68-21.68,1.42c-29.06,2-43.59-10.93-43.59-39v-65.38l-16.26,1.21V997.61l16.26-1.21V962.86q17.35-1.29,34.73-2.49v33.54q15.27-1,30.54-2V1020Q693.08,1021,677.81,1022.07Z"/><path class="cls-15" d="M732.6,1021.26A65,65,0,0,1,755,995.53a61.35,61.35,0,0,1,31.65-10.08q15.26-.66,26.72,5.09a51.38,51.38,0,0,1,18.35,14.86V986.06q17.35-.48,34.73-.71V1121q-17.37.23-34.73.7v-19.83a54.11,54.11,0,0,1-18.35,16.35q-11.7,6.64-27,7.29a56.4,56.4,0,0,1-53.82-30.93q-8.25-15.55-8.25-36.36Q724.35,1037.67,732.6,1021.26Zm94.21,11.34a33,33,0,0,0-13.3-13.3,34.44,34.44,0,0,0-18-4.1,35.94,35.94,0,0,0-17.73,5.41,37.62,37.62,0,0,0-13.18,14.22,43.81,43.81,0,0,0-5,21.44q0,12.24,5,21.17a33.92,33.92,0,0,0,13.3,13.44,33.17,33.17,0,0,0,17.61,4.14,37.16,37.16,0,0,0,18-5.44,36.39,36.39,0,0,0,13.3-14.13q4.92-9.08,4.93-21.57T826.81,1032.6Z"/><path class="cls-15" d="M934.69,1143.49q0,22.53-11.21,32.25c-7.47,6.51-18.19,9.7-32.14,9.72q-7.64,0-15.27.08v-29.13l9.85-.07q7.88,0,11.08-3.08t3.21-9.91V985.17q17.24,0,34.48.39ZM902.3,963.26a20,20,0,0,1,0-28.64c4-3.82,9.15-5.72,15.39-5.65a20.81,20.81,0,0,1,15,6,19.6,19.6,0,0,1,5.91,14.45,18.76,18.76,0,0,1-5.91,14.2q-5.91,5.64-15,5.53Q908.33,969,902.3,963.26Z"/><path class="cls-15" d="M968.06,1017.38c5.5-10.39,13-18.24,22.41-23.47a55.66,55.66,0,0,1,31.65-6.6,57.42,57.42,0,0,1,26.73,8.29,61.29,61.29,0,0,1,18.34,17.2V993.46q17.37,1.8,34.73,4v135.65q-17.36-2.25-34.73-4v-19.83c-4.43,5.9-10.55,10.55-18.34,14s-16.8,4.79-27,4.06a63.39,63.39,0,0,1-31.41-10.76,66.79,66.79,0,0,1-22.41-25.87q-8.25-16.35-8.25-37.15Q959.81,1033,968.06,1017.38Zm94.21,22a39.54,39.54,0,0,0-13.3-15,37.5,37.5,0,0,0-18-6.29,32.86,32.86,0,0,0-17.73,3.37,31.82,31.82,0,0,0-13.18,12.77q-5.05,8.64-5.05,20.89a45.35,45.35,0,0,0,5.05,21.71,39.9,39.9,0,0,0,13.3,14.91,36.56,36.56,0,0,0,17.61,6.17,34.61,34.61,0,0,0,18-3.26,30.42,30.42,0,0,0,13.3-12.44q4.92-8.45,4.92-20.93A46.76,46.76,0,0,0,1062.27,1039.36Z"/></g></g></g></g></svg>