<svg width="23" height="23" viewBox="0 0 23 23" fill="none" xmlns="http://www.w3.org/2000/svg">
<path d="M10.0608 3.76101H3.06076C2.53033 3.76101 2.02162 3.97172 1.64655 4.34679C1.27147 4.72186 1.06076 5.23057 1.06076 5.76101V19.761C1.06076 20.2914 1.27147 20.8001 1.64655 21.1752C2.02162 21.5503 2.53033 21.761 3.06076 21.761H17.0608C17.5912 21.761 18.0999 21.5503 18.475 21.1752C18.85 20.8001 19.0608 20.2914 19.0608 19.761V12.761" stroke="black" stroke-width="2" stroke-linecap="round" stroke-linejoin="round"/>
<path d="M17.5608 2.26101C17.9586 1.86318 18.4982 1.63968 19.0608 1.63968C19.6234 1.63968 20.1629 1.86318 20.5608 2.26101C20.9586 2.65883 21.1821 3.1984 21.1821 3.761C21.1821 4.32361 20.9586 4.86318 20.5608 5.261L11.0608 14.761L7.06076 15.761L8.06076 11.761L17.5608 2.26101Z" stroke="black" stroke-width="2" stroke-linecap="round" stroke-linejoin="round"/>
</svg>
