<svg width="804" height="298" viewBox="0 0 804 298" fill="none" xmlns="http://www.w3.org/2000/svg">
<rect width="804" height="298" fill="white"/>
<path d="M358.556 40.5696H425.43L436.145 61.9871C437.201 64.0925 439.349 65.421 441.703 65.421H472.768C476.19 65.421 479.054 68.2058 479.054 71.628V175.8L490.957 187.713C491.271 186.359 491.474 184.965 491.474 183.516L491.407 71.6162C491.401 61.3501 483.034 52.9953 472.768 52.9953H445.544L434.829 31.5778C433.774 29.4723 431.626 28.2045 429.272 28.2045H354.716C352.361 28.2045 350.207 29.4727 349.158 31.5778L344.381 41.1386L353.646 50.4026C353.646 50.4026 358.557 40.5696 358.556 40.5696V40.5696Z" fill="#AFAFAF"/>
<path d="M439.313 136.069C440.768 131.402 441.776 126.539 441.776 121.399C441.776 93.9923 419.478 71.6948 392.072 71.6948C386.932 71.6948 382.069 72.7026 377.401 74.1581L387.796 84.5528C389.217 84.3876 390.608 84.1206 392.072 84.1206C412.628 84.1206 429.35 100.842 429.35 121.398C429.35 122.863 429.083 124.254 428.918 125.674C428.918 125.675 439.313 136.069 439.313 136.069Z" fill="#AFAFAF"/>
<path d="M491.479 205.808L301.45 15.7787L292.665 24.5641L321.126 53.0254L311.273 53.038C301.013 53.0563 292.665 61.4172 292.665 71.6768V183.528C292.665 193.806 301.025 202.167 311.303 202.167H470.268L482.694 214.593L491.479 205.807V205.808ZM364.689 96.5889L416.882 148.782C410.29 154.821 401.701 158.677 392.072 158.677C371.516 158.677 354.794 141.955 354.794 121.399C354.794 111.77 358.65 103.181 364.689 96.5889V96.5889ZM311.303 189.741C307.876 189.741 305.09 186.957 305.09 183.528V71.6772C305.09 68.255 307.875 65.4703 311.291 65.4641L333.534 65.434L356.019 87.9187C347.727 96.7603 342.368 108.345 342.368 121.399C342.368 148.805 364.665 171.103 392.072 171.103C405.125 171.103 416.71 165.744 425.552 157.452L457.842 189.741H311.303Z" fill="#AFAFAF"/>
<path d="M232.219 277.135C231.293 278.342 230.01 279.256 228.369 279.877C226.729 280.498 224.865 280.808 222.779 280.808C220.635 280.808 218.736 280.322 217.084 279.349C215.432 278.377 214.154 276.988 213.252 275.183C212.361 273.367 211.898 271.252 211.863 268.838V266.834C211.863 262.967 212.789 259.949 214.641 257.781C216.492 255.601 219.076 254.512 222.393 254.512C225.24 254.512 227.502 255.215 229.178 256.621C230.854 258.027 231.861 260.055 232.201 262.703H227.842C227.35 259.621 225.562 258.08 222.48 258.08C220.488 258.08 218.971 258.801 217.928 260.242C216.896 261.672 216.363 263.775 216.328 266.553V268.521C216.328 271.287 216.908 273.437 218.068 274.973C219.24 276.496 220.863 277.258 222.938 277.258C225.211 277.258 226.828 276.742 227.789 275.711V270.701H222.516V267.326H232.219V277.135ZM248.057 280.457C247.869 280.094 247.705 279.502 247.564 278.682C246.205 280.099 244.541 280.808 242.572 280.808C240.662 280.808 239.104 280.264 237.896 279.174C236.689 278.084 236.086 276.736 236.086 275.131C236.086 273.103 236.836 271.551 238.336 270.473C239.848 269.383 242.004 268.838 244.805 268.838H247.424V267.59C247.424 266.605 247.148 265.82 246.598 265.234C246.047 264.637 245.209 264.338 244.084 264.338C243.111 264.338 242.314 264.584 241.693 265.076C241.072 265.557 240.762 266.172 240.762 266.922H236.49C236.49 265.879 236.836 264.906 237.527 264.004C238.219 263.09 239.156 262.375 240.34 261.859C241.535 261.344 242.865 261.086 244.33 261.086C246.557 261.086 248.332 261.648 249.656 262.773C250.98 263.887 251.66 265.457 251.695 267.484V276.062C251.695 277.773 251.936 279.139 252.416 280.158V280.457H248.057ZM243.363 277.381C244.207 277.381 244.998 277.176 245.736 276.766C246.486 276.355 247.049 275.805 247.424 275.113V271.527H245.121C243.539 271.527 242.35 271.803 241.553 272.353C240.756 272.904 240.357 273.683 240.357 274.691C240.357 275.512 240.627 276.168 241.166 276.66C241.717 277.141 242.449 277.381 243.363 277.381ZM260.186 261.437L260.309 263.424C261.645 261.865 263.473 261.086 265.793 261.086C268.336 261.086 270.076 262.058 271.014 264.004C272.396 262.058 274.342 261.086 276.85 261.086C278.947 261.086 280.506 261.666 281.525 262.826C282.557 263.986 283.084 265.697 283.107 267.959V280.457H278.836V268.082C278.836 266.875 278.572 265.99 278.045 265.428C277.518 264.865 276.645 264.584 275.426 264.584C274.453 264.584 273.656 264.848 273.035 265.375C272.426 265.891 271.998 266.57 271.752 267.414L271.77 280.457H267.498V267.941C267.439 265.703 266.297 264.584 264.07 264.584C262.359 264.584 261.146 265.281 260.432 266.676V280.457H256.16V261.437H260.186ZM304.184 271.141C304.184 274.094 303.521 276.443 302.197 278.189C300.885 279.935 299.074 280.808 296.766 280.808C294.539 280.808 292.805 280.006 291.562 278.4L291.352 280.457H287.484V253.457H291.756V263.266C292.986 261.812 294.645 261.086 296.73 261.086C299.051 261.086 300.873 261.947 302.197 263.67C303.521 265.392 304.184 267.801 304.184 270.894V271.141ZM299.912 270.771C299.912 268.709 299.549 267.162 298.822 266.131C298.096 265.099 297.041 264.584 295.658 264.584C293.807 264.584 292.506 265.392 291.756 267.01V274.849C292.518 276.502 293.83 277.328 295.693 277.328C297.029 277.328 298.061 276.83 298.787 275.834C299.514 274.838 299.889 273.332 299.912 271.316V270.771ZM319.143 280.457C318.955 280.094 318.791 279.502 318.65 278.682C317.291 280.099 315.627 280.808 313.658 280.808C311.748 280.808 310.189 280.264 308.982 279.174C307.775 278.084 307.172 276.736 307.172 275.131C307.172 273.103 307.922 271.551 309.422 270.473C310.934 269.383 313.09 268.838 315.891 268.838H318.51V267.59C318.51 266.605 318.234 265.82 317.684 265.234C317.133 264.637 316.295 264.338 315.17 264.338C314.197 264.338 313.4 264.584 312.779 265.076C312.158 265.557 311.848 266.172 311.848 266.922H307.576C307.576 265.879 307.922 264.906 308.613 264.004C309.305 263.09 310.242 262.375 311.426 261.859C312.621 261.344 313.951 261.086 315.416 261.086C317.643 261.086 319.418 261.648 320.742 262.773C322.066 263.887 322.746 265.457 322.781 267.484V276.062C322.781 277.773 323.021 279.139 323.502 280.158V280.457H319.143ZM314.449 277.381C315.293 277.381 316.084 277.176 316.822 276.766C317.572 276.355 318.135 275.805 318.51 275.113V271.527H316.207C314.625 271.527 313.436 271.803 312.639 272.353C311.842 272.904 311.443 273.683 311.443 274.691C311.443 275.512 311.713 276.168 312.252 276.66C312.803 277.141 313.535 277.381 314.449 277.381ZM337.213 265.34C336.65 265.246 336.07 265.199 335.473 265.199C333.516 265.199 332.197 265.949 331.518 267.449V280.457H327.246V261.437H331.324L331.43 263.564C332.461 261.912 333.891 261.086 335.719 261.086C336.328 261.086 336.832 261.168 337.23 261.332L337.213 265.34ZM365.566 271.141C365.566 274.094 364.904 276.443 363.58 278.189C362.268 279.935 360.457 280.808 358.148 280.808C355.922 280.808 354.188 280.006 352.945 278.4L352.734 280.457H348.867V253.457H353.139V263.266C354.369 261.812 356.027 261.086 358.113 261.086C360.434 261.086 362.256 261.947 363.58 263.67C364.904 265.392 365.566 267.801 365.566 270.894V271.141ZM361.295 270.771C361.295 268.709 360.932 267.162 360.205 266.131C359.479 265.099 358.424 264.584 357.041 264.584C355.189 264.584 353.889 265.392 353.139 267.01V274.849C353.9 276.502 355.213 277.328 357.076 277.328C358.412 277.328 359.443 276.83 360.17 275.834C360.896 274.838 361.271 273.332 361.295 271.316V270.771ZM377.537 280.808C374.83 280.808 372.633 279.959 370.945 278.26C369.27 276.549 368.432 274.275 368.432 271.439V270.912C368.432 269.014 368.795 267.32 369.521 265.832C370.26 264.332 371.291 263.166 372.615 262.334C373.939 261.502 375.416 261.086 377.045 261.086C379.635 261.086 381.633 261.912 383.039 263.564C384.457 265.217 385.166 267.555 385.166 270.578V272.301H372.738C372.867 273.871 373.389 275.113 374.303 276.027C375.229 276.941 376.389 277.398 377.783 277.398C379.74 277.398 381.334 276.607 382.564 275.025L384.867 277.223C384.105 278.359 383.086 279.244 381.809 279.877C380.543 280.498 379.119 280.808 377.537 280.808ZM377.027 264.514C375.855 264.514 374.906 264.924 374.18 265.744C373.465 266.564 373.008 267.707 372.809 269.172H380.947V268.855C380.854 267.426 380.473 266.348 379.805 265.621C379.137 264.883 378.211 264.514 377.027 264.514ZM393.041 280.457H388.77V253.457H393.041V280.457ZM409.23 278.594C407.977 280.07 406.195 280.808 403.887 280.808C401.824 280.808 400.26 280.205 399.193 278.998C398.139 277.791 397.611 276.045 397.611 273.76V261.437H401.883V273.707C401.883 276.121 402.885 277.328 404.889 277.328C406.963 277.328 408.363 276.584 409.09 275.096V261.437H413.361V280.457H409.336L409.23 278.594ZM421.729 261.437L421.852 263.424C423.188 261.865 425.016 261.086 427.336 261.086C429.879 261.086 431.619 262.058 432.557 264.004C433.939 262.058 435.885 261.086 438.393 261.086C440.49 261.086 442.049 261.666 443.068 262.826C444.1 263.986 444.627 265.697 444.65 267.959V280.457H440.379V268.082C440.379 266.875 440.115 265.99 439.588 265.428C439.061 264.865 438.188 264.584 436.969 264.584C435.996 264.584 435.199 264.848 434.578 265.375C433.969 265.891 433.541 266.57 433.295 267.414L433.312 280.457H429.041V267.941C428.982 265.703 427.84 264.584 425.613 264.584C423.902 264.584 422.689 265.281 421.975 266.676V280.457H417.703V261.437H421.729ZM475.852 258.449H467.871V280.457H463.459V258.449H455.549V254.863H475.852V258.449ZM485.607 280.808C482.9 280.808 480.703 279.959 479.016 278.26C477.34 276.549 476.502 274.275 476.502 271.439V270.912C476.502 269.014 476.865 267.32 477.592 265.832C478.33 264.332 479.361 263.166 480.686 262.334C482.01 261.502 483.486 261.086 485.115 261.086C487.705 261.086 489.703 261.912 491.109 263.564C492.527 265.217 493.236 267.555 493.236 270.578V272.301H480.809C480.938 273.871 481.459 275.113 482.373 276.027C483.299 276.941 484.459 277.398 485.854 277.398C487.811 277.398 489.404 276.607 490.635 275.025L492.938 277.223C492.176 278.359 491.156 279.244 489.879 279.877C488.613 280.498 487.189 280.808 485.607 280.808ZM485.098 264.514C483.926 264.514 482.977 264.924 482.25 265.744C481.535 266.564 481.078 267.707 480.879 269.172H489.018V268.855C488.924 267.426 488.543 266.348 487.875 265.621C487.207 264.883 486.281 264.514 485.098 264.514ZM506.525 265.34C505.963 265.246 505.383 265.199 504.785 265.199C502.828 265.199 501.51 265.949 500.83 267.449V280.457H496.559V261.437H500.637L500.742 263.564C501.773 261.912 503.203 261.086 505.031 261.086C505.641 261.086 506.145 261.168 506.543 261.332L506.525 265.34ZM519.885 275.289C519.885 274.527 519.568 273.947 518.936 273.549C518.314 273.15 517.277 272.799 515.824 272.494C514.371 272.189 513.158 271.803 512.186 271.334C510.053 270.303 508.986 268.808 508.986 266.851C508.986 265.211 509.678 263.84 511.061 262.738C512.443 261.637 514.201 261.086 516.334 261.086C518.607 261.086 520.441 261.648 521.836 262.773C523.242 263.898 523.945 265.357 523.945 267.15H519.674C519.674 266.33 519.369 265.65 518.76 265.111C518.15 264.56 517.342 264.285 516.334 264.285C515.396 264.285 514.629 264.502 514.031 264.935C513.445 265.369 513.152 265.949 513.152 266.676C513.152 267.332 513.428 267.842 513.979 268.205C514.529 268.568 515.643 268.937 517.318 269.312C518.994 269.676 520.307 270.115 521.256 270.631C522.217 271.135 522.926 271.744 523.383 272.459C523.852 273.174 524.086 274.041 524.086 275.06C524.086 276.771 523.377 278.16 521.959 279.226C520.541 280.281 518.684 280.808 516.387 280.808C514.828 280.808 513.439 280.527 512.221 279.965C511.002 279.402 510.053 278.629 509.373 277.644C508.693 276.66 508.354 275.599 508.354 274.463H512.502C512.561 275.471 512.941 276.25 513.645 276.801C514.348 277.34 515.279 277.609 516.439 277.609C517.564 277.609 518.42 277.398 519.006 276.976C519.592 276.543 519.885 275.98 519.885 275.289ZM536.197 280.808C533.49 280.808 531.293 279.959 529.605 278.26C527.93 276.549 527.092 274.275 527.092 271.439V270.912C527.092 269.014 527.455 267.32 528.182 265.832C528.92 264.332 529.951 263.166 531.275 262.334C532.6 261.502 534.076 261.086 535.705 261.086C538.295 261.086 540.293 261.912 541.699 263.564C543.117 265.217 543.826 267.555 543.826 270.578V272.301H531.398C531.527 273.871 532.049 275.113 532.963 276.027C533.889 276.941 535.049 277.398 536.443 277.398C538.4 277.398 539.994 276.607 541.225 275.025L543.527 277.223C542.766 278.359 541.746 279.244 540.469 279.877C539.203 280.498 537.779 280.808 536.197 280.808ZM535.688 264.514C534.516 264.514 533.566 264.924 532.84 265.744C532.125 266.564 531.668 267.707 531.469 269.172H539.607V268.855C539.514 267.426 539.133 266.348 538.465 265.621C537.797 264.883 536.871 264.514 535.688 264.514ZM546.357 270.807C546.357 267.877 547.037 265.527 548.396 263.758C549.756 261.976 551.578 261.086 553.863 261.086C555.879 261.086 557.508 261.789 558.75 263.195V253.457H563.021V280.457H559.154L558.943 278.488C557.666 280.035 555.961 280.808 553.828 280.808C551.602 280.808 549.797 279.912 548.414 278.119C547.043 276.326 546.357 273.889 546.357 270.807ZM550.629 271.176C550.629 273.109 550.998 274.621 551.736 275.711C552.486 276.789 553.547 277.328 554.918 277.328C556.664 277.328 557.941 276.549 558.75 274.99V266.869C557.965 265.346 556.699 264.584 554.953 264.584C553.57 264.584 552.504 265.135 551.754 266.236C551.004 267.326 550.629 268.973 550.629 271.176ZM572.021 280.457H567.75V261.437H572.021V280.457ZM567.486 256.498C567.486 255.842 567.691 255.297 568.102 254.863C568.523 254.43 569.121 254.213 569.895 254.213C570.668 254.213 571.266 254.43 571.688 254.863C572.109 255.297 572.32 255.842 572.32 256.498C572.32 257.142 572.109 257.682 571.688 258.115C571.266 258.537 570.668 258.748 569.895 258.748C569.121 258.748 568.523 258.537 568.102 258.115C567.691 257.682 567.486 257.142 567.486 256.498ZM588.053 280.457C587.865 280.094 587.701 279.502 587.561 278.682C586.201 280.099 584.537 280.808 582.568 280.808C580.658 280.808 579.1 280.264 577.893 279.174C576.686 278.084 576.082 276.736 576.082 275.131C576.082 273.103 576.832 271.551 578.332 270.473C579.844 269.383 582 268.838 584.801 268.838H587.42V267.59C587.42 266.605 587.145 265.82 586.594 265.234C586.043 264.637 585.205 264.338 584.08 264.338C583.107 264.338 582.311 264.584 581.689 265.076C581.068 265.557 580.758 266.172 580.758 266.922H576.486C576.486 265.879 576.832 264.906 577.523 264.004C578.215 263.09 579.152 262.375 580.336 261.859C581.531 261.344 582.861 261.086 584.326 261.086C586.553 261.086 588.328 261.648 589.652 262.773C590.977 263.887 591.656 265.457 591.691 267.484V276.062C591.691 277.773 591.932 279.139 592.412 280.158V280.457H588.053ZM583.359 277.381C584.203 277.381 584.994 277.176 585.732 276.766C586.482 276.355 587.045 275.805 587.42 275.113V271.527H585.117C583.535 271.527 582.346 271.803 581.549 272.353C580.752 272.904 580.354 273.683 580.354 274.691C580.354 275.512 580.623 276.168 581.162 276.66C581.713 277.141 582.445 277.381 583.359 277.381Z" fill="#535353"/>
<rect x="288.345" y="21.4482" width="13.324" height="280.831" rx="6.66201" transform="rotate(-45.1627 288.345 21.4482)" fill="#AFAFAF"/>
</svg>
