<svg xmlns="http://www.w3.org/2000/svg" viewBox="0 0 793.28 656"><defs><style>.cls-1{fill:#4a1405;}.cls-2{fill:#c4823d;}.cls-3{fill:#fff;}.cls-4{fill:#dcb88f;}</style></defs><g id="Layer_2" data-name="Layer 2"><g id="Text"><path class="cls-1" d="M469.06,34.57s11.47-9.66,6.49-31.24c0,0,2.27,12.82-15.55,25.81Z"/><path class="cls-1" d="M395.2,21.09c-175.32,0-317.45,142.13-317.45,317.45a319.89,319.89,0,0,0,4.62,54.15c207-35.89,419.11-37.26,626.12-2.78a318.62,318.62,0,0,0,4.16-51.37C712.65,163.22,570.52,21.09,395.2,21.09ZM156.07,547.32a317.42,317.42,0,0,0,478.31-.06A1654.35,1654.35,0,0,0,156.07,547.32Z"/><path class="cls-2" d="M605.24,281.18a205.41,205.41,0,0,0-17.4-44.39A208.43,208.43,0,0,0,547.6,183.9a198,198,0,0,0-17.71-15.07A211.65,211.65,0,0,1,588.47,245a204.4,204.4,0,0,1,17.93,93.24,202.11,202.11,0,0,1-5,37.09c2.1.22,4.21.43,6.31.66a207.53,207.53,0,0,0-2.42-94.81Zm-405.52-39.3A206.85,206.85,0,0,0,182.87,378c2.15-.25,4.32-.46,6.48-.71A204.19,204.19,0,0,1,205.9,236.54a211,211,0,0,1,38.35-52.91A214.9,214.9,0,0,1,261.51,168,209.51,209.51,0,0,0,199.72,241.88Z"/><path class="cls-1" d="M0,586s88.09-15.69,154.5,16.31a420.63,420.63,0,0,0-23.71-51.05S48.52,562.08,0,586Z"/><path class="cls-1" d="M793.28,586s-88.09-15.69-154.5,16.31a420.63,420.63,0,0,1,23.71-51.05S744.76,562.08,793.28,586Z"/><path class="cls-2" d="M470.06,120.22l17-59.15L465.44,118.7C467,119.19,468.53,119.69,470.06,120.22ZM457,52.87l-15.38,59.6c1.59.33,3.17.68,4.75,1Zm-46.75-6.22L404.68,108c1.62.07,3.24.15,4.86.25Zm16,1.27-9,60.94c1.62.15,3.23.32,4.84.51Zm14.95,2-12.08,60.39c1.6.23,3.2.49,4.8.76ZM458,116.44l13.73-60-18.42,58.72C454.83,115.57,456.39,116,458,116.44Zm66.62,31,31.91-52.71-36,50C521.87,145.64,523.22,146.54,524.57,147.45Zm-43.35-23.07,20-58.22-24.56,56.45Q479,123.47,481.22,124.38ZM514.54,141l29.15-54.27-33.34,51.79Q512.46,139.76,514.54,141Zm-11-6.26L529.63,79l-30.44,53.53Q501.37,133.62,503.51,134.76Zm-10.66-5.33,23.21-57-27.64,55C489.91,128.07,491.38,128.75,492.85,129.43Zm-202.33,3.42L259.91,79.44l26.3,55.68C287.64,134.35,289.07,133.59,290.52,132.85ZM302,127.42l-27.63-55,23.2,57C299,128.75,300.5,128.07,302,127.42Zm11-4.53L288.23,66.53l20.24,58.14Q310.72,123.76,313,122.89Zm221.87,32L569.63,104,531,152C532.26,152.91,533.57,153.88,534.86,154.86ZM280.05,138.54,246.71,86.75,275.86,141Q277.95,139.76,280.05,138.54ZM325,118.69,303.34,61.07l17,59.15C321.88,119.69,323.42,119.19,325,118.69Zm35.52-8.3L348.2,50.07l7.49,61.11C357.28,110.9,358.88,110.64,360.48,110.39ZM385,108,379.15,46.7l1,61.6Q382.52,108.14,385,108Zm-11.89.83-8.95-60.94,4.12,61.45Q370.66,109.09,373.07,108.86Zm-24.31,3.61-15.38-59.6L344,113.5C345.58,113.15,347.16,112.8,348.76,112.47Zm-12.35,2.89L317.78,56.7l13.93,59.94C333.27,116.2,334.84,115.78,336.41,115.36Zm61.23-7.53L395.2,46.26l-2.43,61.57c.81,0,1.62,0,2.43,0S396.83,107.82,397.64,107.83Zm146.5,54.48,37.37-49-41.12,46Q542.28,160.74,544.14,162.31Zm74.63,118.91c.41,1.57.79,3.15,1.16,4.74l59.29-17.11Zm7.13,53.44,61.69-4.2-61.82-.69C625.83,331.4,625.88,333,625.9,334.66Zm-.13,12.68,61.82-.8-61.69-4.09C625.88,344.09,625.83,345.71,625.77,347.34Zm-4.21-53.75q.48,2.39.9,4.8l60.17-13.83Zm2.65,16.56L685,299.43l-61.48,5.88C623.79,306.92,624,308.53,624.21,310.15Zm1.19,12.63,61.36-7.36L625,317.91C625.17,319.53,625.3,321.15,625.4,322.78ZM165.05,355.12l-61.35,7.47,61.75-2.6C165.3,358.37,165.17,356.75,165.05,355.12ZM166.19,367,105.3,377.57l61.55-5.78C166.61,370.19,166.39,368.57,166.19,367Zm457.37,4.84,61.54,5.77L624.21,367C624,368.57,623.79,370.19,623.56,371.8ZM625,359.2l61.79,2.39-61.41-7.26C625.29,356,625.17,357.58,625,359.2ZM164.67,380.29l3.47-.44-.06-.35ZM570.55,188.56l44.77-42.42-48,38.75Q569,186.71,570.55,188.56Zm15,19.49,49-37.42-51.82,33.43C583.66,205.38,584.6,206.71,585.52,208.05Zm-7.47-10.25L625,157.73,575,194Q576.56,195.86,578.05,197.8Zm-308.8-52.61-36.14-49.9,32.09,52.59Q267.21,146.51,269.25,145.19Zm292.8,34,42.37-44.81-45.78,41.32C559.79,176.81,560.92,178,562.05,179.15Zm-8.45-8.39,40-46.93L550,167.45C551.23,168.54,552.42,169.65,553.6,170.76Zm48,64.49c.73,1.45,1.45,2.91,2.14,4.38L658,210.4ZM607,246.74q1,2.23,1.89,4.49L664.68,225Zm4.46,11q.86,2.28,1.65,4.59l57.13-23.31Zm4.12,12q.72,2.33,1.39,4.67l58.32-20.13ZM592,218l50.89-34.85L589.41,213.9C590.29,215.26,591.15,216.64,592,218Zm4,6.72q1.2,2.12,2.36,4.26l52.72-32ZM417.68,568.2l9.12,61.33-4.25-61.86C420.92,567.87,419.3,568.05,417.68,568.2Zm-53.06,61.43,8.92-61.36c-1.63-.15-3.25-.32-4.87-.5Zm15,1.2,5.75-61.76c-1.64-.07-3.27-.15-4.89-.26ZM405,569.07l5.75,61.76-.85-62C408.29,568.92,406.66,569,405,569.07Zm24.43-2.31,12.28,60.76L434.29,566C432.69,566.26,431.08,566.52,429.45,566.76Zm-36.29,2.51,2.55,62,2.35-62c-.95,0-1.9,0-2.86,0Zm-44.48,58.25L361,566.76c-1.62-.24-3.23-.5-4.84-.78Zm-50.62-79.63-23.25,57.42,27.71-55.4C301,549.25,299.54,548.58,298.06,547.89Zm46.41,15.8-10.59,61,15.38-60C347.65,564.39,346.06,564,344.47,563.69ZM309,552.62l-20.26,58.54,24.82-56.76Q311.22,553.53,309,552.62Zm11.89,4.43-17,59.55,21.67-58C323.93,558.07,322.38,557.57,320.84,557.05Zm11.33,3.53-13.92,60.36,18.65-59.08C335.32,561.45,333.74,561,332.17,560.58ZM499.36,544.5l30.71,53.79-26.38-56.06C502.26,543,500.81,543.76,499.36,544.5Zm23.12-9.69,34.41,47.67-28.73-47.25C526.27,535.07,524.37,535,522.48,534.81Zm-12,3.65,33.62,52L514.72,536C513.33,536.81,511.92,537.64,510.51,538.46Zm29.63-2.19,29.91,37L545,536.7ZM581,540.33l13,13-10.92-12.77Zm-22.4-2.39,23.33,26-19.56-25.58C561.07,538.22,559.81,538.06,558.55,537.94ZM476.89,554.4l24.82,56.76-20.26-58.54Q479.19,553.54,476.89,554.4Zm-11.2,3.91,21.87,58-17.22-59.52C468.79,557.3,467.25,557.81,465.69,558.31Zm-12.18,3.55,18.65,59.08-13.93-60.36C456.67,561,455.09,561.44,453.51,561.86ZM442,564.55l15.58,60-10.79-61C445.14,563.88,443.55,564.23,442,564.55ZM286.71,542.23l-26.37,56.06,30.71-53.79C289.59,543.76,288.15,543,286.71,542.23Zm201.92,7.35,27.9,55.31-23.45-57.34C491.61,548.24,490.12,548.92,488.63,549.58Zm-212.25-13.2L247.16,591l33.44-52.13C279.18,538.05,277.78,537.22,276.38,536.38ZM200.56,214.55,147,184l51,34.66Q199.26,216.61,200.56,214.55Zm7.13-10.49-51.83-33.43,49,37.42Q206.27,206,207.69,204.06ZM259.45,152l-38.68-48,34.78,50.89C256.84,153.88,258.14,152.9,259.45,152Zm-77.89,99.28q.93-2.25,1.89-4.49L125.73,225Zm4.79-10.89c.69-1.48,1.4-2.93,2.12-4.39L132,211.29Zm63.06-80.65L208.15,113.9l37.52,48.91Q247.52,161.23,249.41,159.69Zm-9,7.76L196.8,123.83l40,46.93C238,169.65,239.17,168.54,240.38,167.45Zm-25.5,27.13-50-36.06,47,39.9Q213.37,196.47,214.88,194.58Zm-37.8,68.52c.53-1.54,1.07-3.07,1.64-4.59L119.9,240Zm54.14-86.88-45.91-41.16,42.51,44.65C228.94,178.54,230.07,177.37,231.22,176.22Zm-8.15,8.67-48-38.75,44.77,42.42Q221.44,186.7,223.07,184.89Zm-31,44.12c.77-1.43,1.57-2.85,2.37-4.26L139.35,197ZM228,538.4l-19.52,25.52L231.81,538Zm-19.35,2.07L197.19,554l13.71-13.77Zm-35.21-266c.46-1.56.91-3.12,1.4-4.67l-59.71-15.46Zm-9,68-61.68,4.09,61.82.8C164.57,345.71,164.53,344.09,164.5,342.45Zm82,194.2-25.32,37.19,30.23-37.64Zm15.71-1.39-28.71,47.22,34.39-47.63C266,535,264.11,535.11,262.22,535.26ZM167.94,298.39c.28-1.61.59-3.21.9-4.8l-61.06-9Zm-3.34,32.18-61.78.9,61.67,4C164.51,333.82,164.55,332.19,164.6,330.57Zm5.7-43.85c.36-1.59.75-3.17,1.15-4.74L111,269.82Zm-4.92,31.19-61.73-2.49L165,322.78C165.11,321.15,165.24,319.53,165.38,317.91Zm1.35-11.81-61.48-5.67,60.85,10.51C166.29,309.32,166.51,307.7,166.73,306.1Z"/><path class="cls-1" d="M483.16,588.47a1130.8,1130.8,0,0,0-186.72-1.24l-1.68-27.41-1.45-23.55a1169.7,1169.7,0,0,1,193.38,1.27Z"/><path class="cls-1" d="M299.12,534c-10.83-2.08-113.47,8.85-113.47,8.85l25.57,31.35c45-28.74,84.15-28.95,84.15-28.95Z"/><path class="cls-1" d="M483.1,534c10.83-2.08,121.81,10.21,121.81,10.21l-33.91,30c-45-28.74-84.15-28.95-84.15-28.95Z"/><path class="cls-2" d="M470.67,240.43c-16,6.26-108.23,17.19-135.1-3.43,24.47,7.87,71,5,89,3,30.77-3.35,29-14.73,8.48-20.44-23.05-6.33-62.26-7-93-4.84-41,3.34-64,12.36-64,22.8,2.56,12.92,48.65,24.36,102.43,26,66.58,1.18,120.36-10.65,128-25.94,5.12-12.24-28.16-23.43-84.5-25.74,35.85,5.82,69.14,10.87,69.14,21.31-2.56,12.26-35.86,24.26-92.19,26.25-64,1.91-120.36-10.84-110.12-26.11,5.12-6.71,20.49-12.73,48.66-15.56-42.13,7.09-56.41,18.32-18.6,28.67C362.17,258.3,442.58,256.61,470.67,240.43Z"/><path class="cls-3" d="M489.18,214.44s45.32,10.09,28.91,34.34c-11,16.2-58.48,26.56-127.23,27.2-63.58.59-105.35-7.16-125.07-25-5.2-4.71-7.61-10.94-6-17.62,4.38-18.54,44.23-28.53,84.57-28.91,0,0-54.16-4.94-82.31,14.69-33.49,23.36,7.59,128.06,37,139.12,5,1.86,11.14,6.59,12.81,3.44,27.12,2.84,47.15-2.9,79.95-3.2,32-.3,57.05,6.64,78.77,1.32,3.65,5.2-.93,5.28,14.69-5.62,16.56-11.56,46.59-65.68,49.43-98.74C537.7,220.14,489.18,214.44,489.18,214.44Z"/><path class="cls-3" d="M549.06,258.25s8.06-.1,22-.23,15.77,60.06-72.19,88.06c0,0,44.33-20.5,51.71-57.76,5.62-3.13,10.47-6.09,16.23-9.76l-22.34.23Z"/><path class="cls-1" d="M521.2,93.58c-16.63-15.37-42.13-4.31-37-22.81C496.09,27.54,324,59.27,378.65,40.7,436,21.24,407.71,39.22,421,38.82c59.95-1.84,36.23-.23,36.23-.23-5.6,12.42-3-18.35-52.45-15.89-33.47,1.66-87.9,15.9-87.34,34.07.37,12.24,7.83,26.62,75.2,22.44,42.59-2.64,65.45,30.19,54.18,42.8-3.23,3.62-3.36,5.79-10.14,6.43,16.91,14.35,40.45,24.39,51.77,17.67,14.69-8.73,2.86-21.61,2.86-21.61s17.55,19.53-2.45,28.67c-22.51,10.29-72.34-24.59-81.31-31.25-4.53-2.08-9.12-8.85-14.3-12.09C320.7,64.52,220.73,87.58,238.67,141.7c14.64,44.16,109.27,60.93,128.91,65.35-2.45.12-4.9.3-7.28.54-15.12,1.51-23.21,1.83-32.77,7.65-21.83,13.3,55.57,26.19,94.8,17.91s-41.7-14.61-58.16-13.71c-14.45.78-12.29-9.88,30.76-12.05,31-1.56,49,2.28,49,2.28S302,162.83,307.44,129.07c3.73-23.29,51.43-1.25,51.43-1.25s-37.73-15.31-44.49.42c-2.86,6.65,10.61,17.45,27.56,22.78,5.55-40.36,69.64,26.95,143.76,28.8C546.62,181.34,548.1,118.45,521.2,93.58Z"/><path class="cls-3" d="M517,98.11C500.39,82.74,475.6,94,480.7,75.46,492.62,32.23,324,59.27,378.65,40.7,436,21.24,407.71,39.22,421,38.82,481,37,477,0,477,0c-5.6,12.42-22.68,20.24-72.17,22.7-33.47,1.66-87.9,15.9-87.34,34.07.37,12.24,11.43,19.95,78.79,15.77C438.82,69.89,463,109,451.72,121.59c-3.23,3.61-8.26,6.21-15,6.85,16.91,14.35,40.45,24.39,51.77,17.67,14.69-8.73,2.86-21.61,2.86-21.61s17.55,19.53-2.45,28.67c-22.51,10.29-72.34-24.59-81.31-31.25A124.82,124.82,0,0,1,393,114c-64.57-40.61-162.1-26.62-144.16,27.49,14.64,44.16,99.07,61.14,118.71,65.56-2.45.12-4.9.3-7.28.54-15.12,1.51-23.21,1.83-32.77,7.65-21.83,13.3,55.57,26.19,94.8,17.91s-41.7-14.61-58.16-13.71c-14.45.78-12.29-9.88,30.76-12.05,31-1.56,49.17.57,49.17.57S302,162.83,307.44,129.07c3.73-23.29,51.43-1.25,51.43-1.25s-37.73-15.31-44.49.42c-2.86,6.65,10.61,17.45,27.56,22.78,5.55-40.36,62.48,22.1,136.6,23.95C539.47,176.49,543.92,123,517,98.11Z"/><path class="cls-1" d="M41.91,403.22c0,.09,12.77-8.94,40.39-17.77,4.64-1.48,16.36.37,21.85-1.06,39.58-7.5,90.54-20.3,157.73-27.16a1383.35,1383.35,0,0,1,230-4.19c41.94,2.79,84.31,9.72,127.63,17.6,1.58.29,2.49.86,4.07,1.16,25.42,4.72,51.83,7.51,77,14.88,2.32.69,6.23-1.38,8.6-.58a252.44,252.44,0,0,1,39.32,17.43c0,.12-21.29-6.65-59.47-14.15S595.71,374,529.14,369.68a1978.09,1978.09,0,0,0-227.9-1.4c-41.69,2.14-84.73,5.65-128.27,11.14S85.37,392.37,41.91,403.22Z"/><path class="cls-1" d="M5.23,583.19c0,.14,22.62-10.55,64.66-22.27S173.21,537,247.53,530.38s161.43-8.56,254.06-1.87a1378.1,1378.1,0,0,1,141.82,17.38c23.92,4.29,47.88,9.35,71.64,15.47a627.31,627.31,0,0,1,70,23c0,.12-23.35-8.39-65.55-16.82s-103.09-17.34-176.7-22.78a2207.73,2207.73,0,0,0-252.08-4.14c-46.12,2-93.74,5.49-141.83,11.78-24,3.16-48.19,7-72.25,12A614.45,614.45,0,0,0,5.23,583.19Z"/><path class="cls-4" d="M344,565.57a4.18,4.18,0,0,1-1.71,1.07,10.64,10.64,0,0,1-2.85.28h-3.93a2.92,2.92,0,0,1-1.3-.2,1.12,1.12,0,0,1-.48-.53,7.29,7.29,0,0,1-.13-1.87v-7.64h5.09a5.07,5.07,0,0,1,2.15.34,2.11,2.11,0,0,1,1,.94,8.78,8.78,0,0,1,.48,2.17h.63v-8.06h-.63a3.84,3.84,0,0,1-1,2.76,4.16,4.16,0,0,1-2.65.6h-5.09v-9.16h6.35a7.72,7.72,0,0,1,2.41.26,2.76,2.76,0,0,1,1.29,1,8.12,8.12,0,0,1,.8,2.51h.66l-.25-5.07H327v.63h.82a2.66,2.66,0,0,1,2.05.68,5,5,0,0,1,.45,2.72V564.1a8,8,0,0,1-.2,2.23,1.42,1.42,0,0,1-.74.82,3.18,3.18,0,0,1-1.56.4H327v.63h17.86l2-5.81h-.69A13.22,13.22,0,0,1,344,565.57Zm12.58-6.12-2.5-1.21a6.19,6.19,0,0,1-2.15-1.49,2.57,2.57,0,0,1-.54-1.64,1.83,1.83,0,0,1,.73-1.4,2.86,2.86,0,0,1,1.93-.64,3.77,3.77,0,0,1,2.59.91,6.94,6.94,0,0,1,1.67,3.42h.56v-5.33h-.56a1.79,1.79,0,0,1-.36.53.71.71,0,0,1-.43.12,5.46,5.46,0,0,1-1.16-.26,8.11,8.11,0,0,0-2.24-.39,4.73,4.73,0,0,0-3.43,1.29,4.37,4.37,0,0,0-1.32,3.23,3.88,3.88,0,0,0,.77,2.47,9.75,9.75,0,0,0,3.24,2.22,14.13,14.13,0,0,1,3.31,2,2.67,2.67,0,0,1,.83,2,2.22,2.22,0,0,1-.74,1.67,2.73,2.73,0,0,1-1.93.69,4.4,4.4,0,0,1-3-1.21,6.37,6.37,0,0,1-1.83-3.61h-.56v5.59H350a.68.68,0,0,1,.62-.45,3.19,3.19,0,0,1,.92.18,12.46,12.46,0,0,0,3.28.51,5.59,5.59,0,0,0,3.61-1.31,4.21,4.21,0,0,0,1.62-3.44C360,562.06,358.84,560.58,356.53,559.45Zm13,6.65a1.93,1.93,0,0,1-1.1.35,1.37,1.37,0,0,1-1.12-.53,3.4,3.4,0,0,1-.43-2V553.72h3.65v-1.19h-3.65v-5.15h-.53a17.56,17.56,0,0,1-1.1,2.38,10,10,0,0,1-1.75,2.13,6.5,6.5,0,0,1-1.92,1.27v.56h2.48v10.53a6.5,6.5,0,0,0,.36,2.5,2.65,2.65,0,0,0,1.11,1.25,3,3,0,0,0,1.54.44,3.68,3.68,0,0,0,2.25-.85,5.32,5.32,0,0,0,1.69-2.52h-.66A2.26,2.26,0,0,1,369.52,566.1Zm5.81-1.24a1.87,1.87,0,0,0-1.35.55,1.83,1.83,0,0,0-.55,1.35,1.81,1.81,0,0,0,.55,1.34,1.9,1.9,0,0,0,2.69,0,1.81,1.81,0,0,0,.55-1.34,1.88,1.88,0,0,0-1.89-1.9Zm23.58,1.66a11,11,0,0,1-.16-2.42V544.53h-.56l-5.64,2.75.26.53a4.56,4.56,0,0,1,1.76-.53,1.19,1.19,0,0,1,.76.26,1.37,1.37,0,0,1,.43.8,17.85,17.85,0,0,1,.17,3.25V564.1a8.8,8.8,0,0,1-.19,2.5,1.38,1.38,0,0,1-.66.67,6.23,6.23,0,0,1-2.12.28v.63h8.71v-.63a5.94,5.94,0,0,1-2.08-.29A1.29,1.29,0,0,1,398.91,566.52Zm15.65-22a6.48,6.48,0,0,0-5.49,2.89,8.93,8.93,0,0,0-1.74,5.42,7.11,7.11,0,0,0,1.74,5,5.51,5.51,0,0,0,4.19,1.89,9.21,9.21,0,0,0,4.85-1.73,15.27,15.27,0,0,1-2.49,5.49,11.06,11.06,0,0,1-3.69,3.49,9.2,9.2,0,0,1-4.14,1v.63h1a10.72,10.72,0,0,0,6-1.81A15.9,15.9,0,0,0,420,561.3a14.28,14.28,0,0,0,1.9-7.2,10.73,10.73,0,0,0-2.49-7.21A6.27,6.27,0,0,0,414.56,544.53Zm3.83,12.22a6.17,6.17,0,0,1-1.9,1.06,5.8,5.8,0,0,1-1.86.37,3.32,3.32,0,0,1-2.74-1.47,9.23,9.23,0,0,1-1.52-5.63,6.17,6.17,0,0,1,1.15-4.07,3.4,3.4,0,0,1,2.66-1.37,3.23,3.23,0,0,1,2.35,1,6.74,6.74,0,0,1,1.6,2.94,13,13,0,0,1,.56,3.58A28,28,0,0,1,418.39,556.75Zm15.25-1.4a13.5,13.5,0,0,0,3.85-3.18,4.72,4.72,0,0,0,.92-2.65,4.56,4.56,0,0,0-1.71-3.47,7.42,7.42,0,0,0-9.14.11,5.16,5.16,0,0,0-1.74,3.89,5.57,5.57,0,0,0,.79,2.84,15.87,15.87,0,0,0,3.55,3.62,14.6,14.6,0,0,0-3.56,3.34,5.1,5.1,0,0,0,.43,6.67,6.54,6.54,0,0,0,5.14,2.07,6.91,6.91,0,0,0,4.89-1.73,5.52,5.52,0,0,0,1.86-4.18,6.11,6.11,0,0,0-1.29-3.68A22.16,22.16,0,0,0,433.64,555.35Zm-3.6-3a6.39,6.39,0,0,1-1.29-1.69,4,4,0,0,1-.46-1.78,3.12,3.12,0,0,1,1.1-2.36,4,4,0,0,1,2.84-1,3.69,3.69,0,0,1,2.75,1,3.82,3.82,0,0,1,1,2.81,5.29,5.29,0,0,1-.55,2.42,12.27,12.27,0,0,1-2.6,2.91Zm5.36,14.26a4.11,4.11,0,0,1-2.95,1,4,4,0,0,1-3.07-1.33,5.05,5.05,0,0,1-1.2-3.53,6.85,6.85,0,0,1,.68-3,8.14,8.14,0,0,1,2.1-2.6,24.56,24.56,0,0,1,4.91,4.73,3.92,3.92,0,0,1,.64,2.21A3.32,3.32,0,0,1,435.4,566.62ZM446.31,551l1.52-3.11h7l1.33-2.9h-8.3l-4.45,9a15.16,15.16,0,0,1,5.08.89,8.69,8.69,0,0,1,3.72,2.81,6.47,6.47,0,0,1,1.35,3.93,5,5,0,0,1-1.51,3.68,4.81,4.81,0,0,1-3.51,1.51,4.55,4.55,0,0,1-2.6-.89,7.47,7.47,0,0,0-1.13-.7,2.09,2.09,0,0,0-.78-.14,1.41,1.41,0,0,0-1,.37,1.15,1.15,0,0,0-.39.85,2,2,0,0,0,.94,1.56,5.16,5.16,0,0,0,3,.71,9.22,9.22,0,0,0,4-.94,9.41,9.41,0,0,0,2.51-1.76,9,9,0,0,0,1.87-2.65,7.64,7.64,0,0,0,.74-3.38,7.54,7.54,0,0,0-2.27-5.47A12.23,12.23,0,0,0,446.31,551Z"/><path class="cls-1" d="M144.48,497.83a33.68,33.68,0,0,1-14.5,6.29c-6.7,1.25-12.45.69-17.31-1.71s-8.93-6.53-12.22-12.44a71.3,71.3,0,0,1-7.33-20.35A53,53,0,0,1,93,447.49a27.49,27.49,0,0,1,8-14.18,28.46,28.46,0,0,1,14.91-7.65,29.43,29.43,0,0,1,19.58,2.92q9.22,4.83,14.1,16.09l2.61-.43q-2.44-15-4.9-30l-2.67.44a8,8,0,0,1-1.29,5.1,5.49,5.49,0,0,1-3.53,2.13c-1.14.19-3.92-.13-8.36-.92a58.8,58.8,0,0,0-21.3-.2,52.66,52.66,0,0,0-23.71,11,46.45,46.45,0,0,0-14.82,21,44.28,44.28,0,0,0,9.23,45.26A41.19,41.19,0,0,0,101,510.28a56.86,56.86,0,0,0,25.83.62,49.32,49.32,0,0,0,17.93-6.78,50.33,50.33,0,0,0,13.49-13.61c-.41-2.48-.81-5-1.22-7.45C152.81,489.73,148.66,494.65,144.48,497.83ZM218,447.69a26,26,0,0,0-12.11-10.16,30,30,0,0,0-15.82-2C181,436.77,174.26,441,170,448.18a34.48,34.48,0,0,0-4.26,23.58,35.23,35.23,0,0,0,10.84,20.74c5.89,5.56,13.32,7.66,22.4,6.42,9.25-1.27,16-5.64,20.5-13.22,3.69-6.26,5.07-13.64,4.07-22.15A36.44,36.44,0,0,0,218,447.69Zm-12.6,38.05a10.9,10.9,0,0,1-2.57,6.53,7.51,7.51,0,0,1-4.64,2.26,7.38,7.38,0,0,1-5.64-1.63,12.4,12.4,0,0,1-4-6.47,84.51,84.51,0,0,1-2.75-12.66q-1.86-12.91-2.14-20.28t1.82-10.18A8,8,0,0,1,191,440a7.31,7.31,0,0,1,4.75.72,11.47,11.47,0,0,1,4.54,5.43q1.8,3.9,3.23,14.79Q205.94,479.48,205.43,485.74Zm151.64-11.82A12.66,12.66,0,0,1,350,476.3a14,14,0,0,1-11.08-5c-4.12-4.49-6.58-10.72-7.33-18.7q17.06-.75,34.11-1.12-.84-14.77-8.06-22.13c-4.84-4.89-10.5-7.23-16.92-7-7.69.29-14.28,3.58-19.66,9.82s-7.74,14.43-7.17,24.49c.46,8.21,2.74,15,6.78,20.33,5,6.64,12,9.74,21,9.4a24.07,24.07,0,0,0,13.72-4.63q5.88-4.34,10.65-14.45L363.77,466Q360.22,471.67,357.07,473.92ZM331,446.06c-.29-6.67.79-12,3.29-15.92a6.66,6.66,0,0,1,5.61-3.52,5.79,5.79,0,0,1,3.83,1,11.61,11.61,0,0,1,3.87,5.75q1.32,3.84,1.64,14.23-9.06.3-18.14.7C331,447.57,331,446.81,331,446.06ZM302.64,408a5,5,0,0,0,2.32,3.74,8.53,8.53,0,0,0,5.74,1.41,10.1,10.1,0,0,0,6.58-2.49,6.42,6.42,0,0,0,2.27-5.16c-.12-2.41-1.59-4.54-4.43-6.37s-7.09-2.59-12.75-2.25c-8.28.51-14.71,3-19.23,7.53a19.4,19.4,0,0,0-6,16l.3,3c.12,1.48.24,3,.35,4.44l-9.19.76.54,6.31,9.15-.75,3.3,41.79q.39,4.91-.14,6.49a4.78,4.78,0,0,1-2.18,2.61,14.86,14.86,0,0,1-5.75,1.42c.07.77.14,1.54.2,2.32q17.88-1.53,35.79-2.61c0-.77-.09-1.54-.14-2.32q-5.58.54-7.82-1.71-1.41-1.46-1.81-7.52l-2.79-41.83c3.1-.21,6.2-.4,9.3-.59q-.18-3.17-.38-6.32c-3.11.19-6.22.38-9.34.59l-.51-7.67q-.44-5.64-.88-11.27c-.16-2.28.18-4,1-5.05a4.28,4.28,0,0,1,3.24-1.77,4,4,0,0,1,2.74.8,2.37,2.37,0,0,1,.95,2,8.43,8.43,0,0,1-.15,2.08A14.09,14.09,0,0,0,302.64,408Zm-42.2,77.47c-1-.95-1.64-3.43-2-7.46l-4-41.74c3.09-.3,6.19-.58,9.29-.86q-.28-3.15-.56-6.3c-3.11.27-6.22.56-9.33.85q-.36-3.82-.73-7.65L251.93,411c-.22-2.27.07-4,.87-5.08A4.24,4.24,0,0,1,256,404.1a4,4,0,0,1,2.77.73,2.37,2.37,0,0,1,1,1.92,8.25,8.25,0,0,1-.09,2.08,13.65,13.65,0,0,0-.19,2.42,5,5,0,0,0,2.43,3.67,8.54,8.54,0,0,0,5.77,1.25,10.12,10.12,0,0,0,6.51-2.68,6.42,6.42,0,0,0,2.13-5.22c-.19-2.41-1.72-4.49-4.61-6.24s-7.17-2.4-12.82-1.89c-8.26.75-14.62,3.46-19,8.06a19.43,19.43,0,0,0-5.57,16.18l.39,3,.48,4.43-9.18,1,.72,6.29c3-.35,6.09-.68,9.13-1q2.25,20.85,4.48,41.69c.35,3.25.36,5.42,0,6.49a4.82,4.82,0,0,1-2.11,2.67,14.84,14.84,0,0,1-5.7,1.58c.08.77.17,1.54.26,2.31q17.83-2,35.72-3.61c-.07-.78-.13-1.55-.2-2.32C264.6,487.39,262,486.9,260.44,485.44Zm162.33-34.05q-.27-14.79-7.21-22.43c-4.65-5.07-10.22-7.62-16.64-7.63-7.69,0-14.4,3-20,9.06s-8.29,14.11-8.11,24.19c.15,8.23,2.17,15.08,6,20.58,4.77,6.83,11.61,10.19,20.62,10.19a24.06,24.06,0,0,0,13.89-4.1q6-4.11,11.19-14l-2.21-1.46q-3.78,5.57-7,7.69a12.59,12.59,0,0,1-7.15,2.11,13.91,13.91,0,0,1-10.87-5.39q-5.92-7-6.62-19Q405.71,451.11,422.77,451.39Zm-34.49-4.51c0-.76,0-1.51,0-2.27,0-6.67,1.24-11.94,3.89-15.78a6.67,6.67,0,0,1,5.74-3.3,5.78,5.78,0,0,1,3.79,1.17,11.53,11.53,0,0,1,3.65,5.89q1.16,3.89,1.09,14.29Q397.36,446.82,388.28,446.88Zm117-40.44c-5.49-4.87-15-7.76-28.4-8.46q-20.37-1.05-40.75-1.56l-.06,2.39c4.27.11,7.17.57,8.71,1.35a6.57,6.57,0,0,1,3.17,3c.58,1.24.79,4.24.63,9q-.94,28.41-1.9,56.82-.24,7.11-1.18,8.88a6.66,6.66,0,0,1-3.16,2.84c-1.48.71-4.26,1-8.35.9l-.06,2.39q22.42.56,44.82,1.81c0-.79.09-1.59.13-2.38-4-.23-6.72-.73-8.18-1.54a6.4,6.4,0,0,1-3-3.09q-.8-1.87-.46-9,.58-12.13,1.15-24.26c10.29.49,17.62.42,22-.35q9.75-1.59,15.69-7.23a21.08,21.08,0,0,0,6.61-14.15C513.17,417.13,510.72,411.32,505.23,406.44Zm-15.1,16.17q-.61,9.79-5.32,14.21c-3.14,2.95-7.42,4.27-12.87,4-.76,0-1.88-.14-3.35-.3l1.8-37.81,2.81.14c6,.29,10.44,2,13.28,5.24S490.52,416.12,490.13,422.61Zm55-19.59q-13.49-1.31-27-2.36c-.06.8-.13,1.59-.19,2.39q4.51.61,5.95,2.52t.91,8.21q-2.61,31.16-5.2,62.32-.54,6.38-2,7.74-2.13,2-6.17,1.84c-.06.77-.12,1.55-.19,2.32q16.41,1.29,32.77,2.94l.24-2.31c-2.89-.47-4.77-1.33-5.65-2.61s-1.12-4-.72-8.28Q541.53,440.38,545.12,403Zm56.74,87.43a2.36,2.36,0,0,1-1.42-.73,3,3,0,0,1-.75-1.7,23.59,23.59,0,0,1,.38-5.2q1.62-11.61,3.23-23.22,1.35-9.68.78-12.48c-.64-3-2.52-5.88-5.67-8.76s-7.73-4.71-13.71-5.45a45,45,0,0,0-14.57.54,24.11,24.11,0,0,0-11.42,5.27,13,13,0,0,0-4.75,8.42,7.41,7.41,0,0,0,2.22,6,10.5,10.5,0,0,0,6.75,3.21,9.17,9.17,0,0,0,6.6-1.5,7,7,0,0,0,3.05-5.07c.2-1.71-.44-3.59-1.92-5.62-1.1-1.48-1.59-2.66-1.49-3.56a3.27,3.27,0,0,1,2.06-2.49,12.83,12.83,0,0,1,7.41-1,9,9,0,0,1,4.68,1.9,7.06,7.06,0,0,1,2.54,3.44c.36,1.25.26,4.13-.31,8.66-.25,2-.51,4-.76,6-14.44,4.35-23.79,8.28-28.22,11.49s-6.87,7.15-7.35,11.73a11.45,11.45,0,0,0,2.56,8.81,12,12,0,0,0,8.26,4.32c5.87.66,12.85-1.79,21.08-7.31,0,3.3.91,5.87,2.65,7.73s4.32,3,7.77,3.46a15,15,0,0,0,8.15-1.06,24.27,24.27,0,0,0,7.68-5.93l-1.73-1.81C604.25,490,603,490.6,601.86,490.45Zm-20.15-8.95c-3.17,2-5.83,2.92-8,2.65a6,6,0,0,1-4.35-2.27,7.3,7.3,0,0,1-1.55-5.45,11.74,11.74,0,0,1,3.37-6.7c3-3.15,7.35-5.93,13.08-8.29Q583,471.46,581.71,481.5Zm67.13-39.24c-9.67-1.62-17.88.92-24.49,7.54a35.42,35.42,0,0,0-10,20.45A34.12,34.12,0,0,0,618.44,493c3.93,6.74,9.86,10.74,17.88,12.07a26.33,26.33,0,0,0,14.15-1.54,31,31,0,0,0,12.75-9.82l-1.74-1.89a28.55,28.55,0,0,1-7.74,4.32,13.34,13.34,0,0,1-6.27.4,13.74,13.74,0,0,1-8-4.17q-4.11-4.54-5.61-12.67a48.11,48.11,0,0,1-.18-16.55c1.08-6.76,3-11.6,5.89-14.5,1.86-1.92,3.87-2.71,6-2.35a4.92,4.92,0,0,1,3.34,2.2q1.27,1.85,1,5.93-.48,6.48,1.64,9.39a9.06,9.06,0,0,0,6,3.61,8.54,8.54,0,0,0,6.37-1.1,7.71,7.71,0,0,0,3.33-5.37c.69-3.81-.57-7.61-3.83-11.39S655.33,443.35,648.84,442.26Zm73.76,44.82c1.81-9.7,1-17.52-2.59-23.43a22.05,22.05,0,0,0-14.85-10.85c-7.57-1.56-14.78.05-21.52,4.83s-11,12.15-12.84,22.05q-2.26,12.13,1.76,21.38c3.31,7.65,9.37,12.33,18.24,14.15a24.36,24.36,0,0,0,14.5-1.2q6.76-2.81,13.85-11.48l-1.89-1.88c-3.23,3.12-6,5.17-8.45,6.12a12.77,12.77,0,0,1-7.47.61,14,14,0,0,1-9.62-7.48q-4.43-8-2.69-19.92Q705.85,483.34,722.6,487.08ZM690,473.45q1.95-9.81,7-14.67a6.68,6.68,0,0,1,6.31-2.07,5.86,5.86,0,0,1,3.5,1.91,11.53,11.53,0,0,1,2.41,6.51c.24,2.69-.37,7.43-1.8,14.22q-8.92-1.91-17.87-3.68C689.7,474.93,689.84,474.19,690,473.45Z"/></g></g></svg>